# xmcd CD database file
#
# Track frame offsets:
#	150
#	19945
#	47185
#	79380
#	96915
#	118700
#	137470
#	162715
#	186195
#	212900
#	246840
#	268355
#	290500
#	301860
#
# Disc length: 4551 seconds
#
# Revision: 1
# Processed by: cddbd v1.5.2PL0 Copyright (c) Steve Scherf et al.
# Submitted via: Feurio! 1.68 - http://www.feurio.com
#
DISCID=d611c50e
DTITLE=Various Artist - Inspirational Gospel
DYEAR=2003
DGENRE=Gospel
TTITLE0=Yolanda Adams - The Battle Is The Lords
TTITLE1=Darius Brooks - Your Will
TTITLE2=Twiinkie Clark w/The Clark Sisters - Endow Me
TTITLE3=Pam and Dodi - What's Wrong
TTITLE4=Michele Williams - Heard A Word
TTITLE5=Mary Mary - In The Morning
TTITLE6=Bebe Wnans w/Brian McKnight - Coming Back Home
TTITLE7=William Becton - Be Encouraged
TTITLE8=Kirk Franklin - Why We Sing
TTITLE9=Helen Baylor - Helen's Testimony
TTITLE10=GMWA Women Of Worship - Order My Steps
TTITLE11=Donnie McClurkin - We Fall Down
TTITLE12=Helen Baylor - If IT Had Not Been For The Lord
TTITLE13=The Canton Spirituals - Memories (When Will I See You Again)
EXTD=
EXTT0=
EXTT1=
EXTT2=
EXTT3=
EXTT4=
EXTT5=
EXTT6=
EXTT7=
EXTT8=
EXTT9=
EXTT10=
EXTT11=
EXTT12=
EXTT13=
PLAYORDER=
